<svg width="18" height="21" viewBox="0 0 18 21" fill="none" xmlns="http://www.w3.org/2000/svg">
<path d="M0.00812788 11.5736C0.00325115 11.7053 0 11.8386 0 11.9719C0 12.5928 0.0601463 13.1927 0.178813 13.7811C0.290978 14.3582 0.464915 14.9142 0.697372 15.4604C0.697372 15.4669 0.703874 15.4766 0.707125 15.4831C0.937957 16.0277 1.21918 16.5365 1.53942 17.016C1.85803 17.4972 2.22541 17.9394 2.63018 18.3441C3.03495 18.7538 3.47873 19.1163 3.95828 19.4333C4.43945 19.7568 4.9515 20.0331 5.49119 20.2656C6.04226 20.5029 6.60959 20.6752 7.19155 20.7939C7.77188 20.9109 8.37659 20.9711 8.99756 20.9711C9.61853 20.9711 10.2184 20.9109 10.8068 20.7922C11.3839 20.6801 11.9399 20.5061 12.486 20.2737C12.4925 20.2737 12.5023 20.2672 12.5088 20.2639C13.0485 20.0331 13.5622 19.7519 14.0417 19.4316C14.5229 19.113 14.9651 18.7456 15.3698 18.3425C15.7795 17.9377 16.142 17.494 16.4606 17.0144C16.7841 16.5332 17.0588 16.0212 17.2929 15.4815C17.5302 14.9304 17.7025 14.3631 17.8212 13.7811C17.9399 13.1976 18 12.5928 18 11.9719C18 11.8386 17.9967 11.7069 17.9919 11.5752C12.0146 11.5736 6 11.5736 0.00812788 11.5736ZM0.798158 12.3653H3.28691C3.37957 13.5958 3.78922 14.8313 4.51748 16.0797H1.88404C1.71661 15.7887 1.56543 15.4864 1.43051 15.1678C1.424 15.1613 1.424 15.158 1.42075 15.1515C1.21593 14.6606 1.05337 14.1518 0.950962 13.6235C0.868057 13.2138 0.816039 12.7977 0.798158 12.3653ZM2.3961 16.8681H5.02465C5.77404 17.9475 6.76402 19.0334 7.99458 20.1225C7.7735 20.0965 7.5573 20.0624 7.3476 20.0201C6.81279 19.9112 6.30073 19.7551 5.80331 19.5389C5.301 19.3244 4.83284 19.0691 4.39393 18.7765C3.95665 18.4856 3.55676 18.1556 3.1845 17.7833C2.8984 17.4972 2.63343 17.1948 2.3961 16.8714V16.8681ZM10.0038 20.1225C11.2409 19.0317 12.2276 17.9475 12.9737 16.8681H15.6023C15.3649 17.1916 15.1 17.4956 14.8139 17.7801C14.4416 18.1523 14.0417 18.4823 13.6044 18.7733C13.172 19.0643 12.7022 19.3179 12.1951 19.5357C12.1886 19.5422 12.1853 19.5422 12.1788 19.5454C11.6879 19.7503 11.1791 19.9128 10.6508 20.0152C10.4346 20.0591 10.2184 20.0916 10.0038 20.1176V20.1225ZM16.116 16.0797H13.4809C14.2108 14.8329 14.6204 13.5975 14.7115 12.3653H17.2002C17.1791 12.7977 17.1303 13.2138 17.049 13.6235C16.9401 14.1583 16.7841 14.6703 16.5679 15.1678C16.4329 15.4847 16.2818 15.7887 16.116 16.0797ZM9.3942 19.6105V16.8681H12.0065C11.3205 17.7752 10.4508 18.6871 9.3942 19.6105ZM9.3942 16.0797V12.3653H13.9231C13.8206 13.5861 13.3671 14.8215 12.5576 16.0797H9.3942ZM8.6058 12.3653V16.0797H5.44243C4.63289 14.8215 4.17936 13.5844 4.07694 12.3653H8.6058ZM8.6058 16.8681V19.6105C7.54755 18.6871 6.67787 17.7752 5.99187 16.8681H8.6058Z" fill="black"/>
<path fill-rule="evenodd" clip-rule="evenodd" d="M13.5603 7.19594L13.8415 7.18944L14.0756 7.18294C13.8008 6.34252 13.8935 5.57037 14.5502 4.91364C14.6608 5.27451 14.9111 5.57199 15.337 5.79145C15.5402 5.94262 15.7369 6.12469 15.9271 6.33439C15.9612 6.19459 15.8328 6.02715 15.6768 5.85322C15.8214 5.92474 15.9531 6.0239 16.049 6.21572C16.1596 6.43843 16.1579 6.62699 16.1205 6.86758C16.1027 6.97974 16.0767 7.08378 16.0376 7.18131H16.4261C16.8358 6.30188 16.5757 4.99817 15.7369 4.44709C15.4784 4.27804 15.2947 4.28454 14.9924 4.28454C14.6461 4.28454 14.469 4.29429 14.1731 4.49099C13.7374 4.78034 13.4692 5.27939 13.3554 5.97351C13.3343 6.31976 13.318 6.91797 13.5603 7.19594ZM0.155762 10.3122C0.189899 9.36284 1.3278 9.32545 2.21699 8.77113L2.81195 10.3122H0.155762ZM4.01325 9.79036H4.13029C4.23596 9.79036 4.32211 9.70421 4.32211 9.59854V9.28806C4.32211 9.1824 4.23596 9.09624 4.13029 9.09624H3.43617C3.33051 9.09624 3.24436 9.1824 3.24436 9.28806V9.59854C3.24436 9.70421 3.33051 9.79036 3.43617 9.79036H3.55484L3.45243 10.3122H4.11241L4.01325 9.79036ZM2.79895 8.10139C2.82171 7.92095 2.28852 7.32761 2.19098 6.99925C1.98291 6.66763 1.90813 6.32464 2.13571 5.97351C2.22675 5.83371 2.18773 5.4582 2.18773 5.26639C2.18773 3.36284 5.52504 3.36121 5.52504 5.26639C5.52504 5.50697 5.46977 5.82071 5.59981 6.0109C5.81764 6.32789 5.70548 6.70664 5.52016 7.00087C5.40312 7.34712 4.84555 7.90632 4.88294 8.10301C4.91707 9.07836 2.79245 9.04585 2.79895 8.10139ZM8.28852 7.72751L9.12406 10.1805L9.54509 8.72398L9.33864 8.49965C9.24436 8.36311 9.22485 8.24607 9.27687 8.14365C9.38903 7.9242 9.61824 7.96321 9.83281 7.96321C10.0588 7.96321 10.3384 7.92095 10.4083 8.2038C10.431 8.29971 10.4018 8.39724 10.3367 8.49965L10.1303 8.72398L10.5513 10.1805L11.3072 7.72751C12.2907 8.61344 14.2723 8.09489 14.5112 10.3105H4.81954C5.0715 7.97784 7.29692 8.62157 8.28852 7.72751ZM7.6074 4.47961C7.61228 4.61778 7.6838 4.79822 7.82523 5.00792L7.82848 5.01117L8.29502 5.75243C8.48196 6.04991 8.6754 6.35064 8.91924 6.57172C9.14845 6.78305 9.4313 6.9261 9.8003 6.9261C10.2018 6.92772 10.4928 6.77817 10.7318 6.55547C10.9805 6.32301 11.1788 6.00115 11.3739 5.68091L11.8989 4.81773C12.0062 4.57389 12.0387 4.42596 12.003 4.35444C11.9834 4.3138 11.9103 4.29917 11.7933 4.30404C11.712 4.3268 11.6177 4.3268 11.5055 4.29592L11.7185 3.4815C10.0734 3.65056 9.14845 2.11114 7.97641 3.28156L8.12921 4.24715C7.93902 4.28616 7.5944 4.16262 7.6074 4.47961ZM12.0355 4.02607C12.146 4.06021 12.2257 4.12198 12.2744 4.22114C12.3541 4.37882 12.3216 4.61453 12.1736 4.95102C12.1704 4.95753 12.1671 4.9624 12.1655 4.9689L11.634 5.84346C11.4275 6.18158 11.2194 6.52133 10.9398 6.78305C10.6505 7.05614 10.2896 7.23821 9.79868 7.23496C9.34026 7.23333 8.99402 7.05939 8.71117 6.7993C8.43807 6.55059 8.23162 6.23035 8.03493 5.91824L7.56839 5.17698C7.39608 4.91851 7.30667 4.6828 7.30017 4.48773C7.29692 4.39345 7.31317 4.31055 7.34893 4.23414C7.38632 4.15612 7.44159 4.08947 7.51799 4.03745C7.55538 4.01469 7.59765 3.99193 7.64154 3.97568C7.61228 3.57579 7.60252 3.07999 7.62203 2.66546C7.63178 2.56468 7.65129 2.46389 7.67893 2.36148C7.79759 1.93558 8.09832 1.59421 8.46733 1.35688C8.59738 1.2756 8.74043 1.20407 8.89161 1.15043C9.78567 0.828564 10.9723 1.00575 11.6079 1.69337C11.868 1.97297 12.0306 2.34523 12.0647 2.83777L12.0355 4.02607ZM14.6299 8.79388L14.8396 8.064L14.7372 7.95184C14.69 7.88519 14.6819 7.82504 14.7063 7.77465C14.7616 7.66411 14.877 7.68524 14.9843 7.68524C15.0964 7.68524 15.2362 7.66248 15.272 7.80553C15.2834 7.85268 15.2687 7.90144 15.2379 7.95346L15.1338 8.06725L15.3435 8.79714L14.9859 9.07998L14.6299 8.79388ZM16.5091 8.54029C16.3497 8.22168 16.1482 7.95021 15.9125 7.69662C16.3546 7.86731 16.8082 8.03637 17.1414 8.24769C17.3544 8.38099 17.4649 8.48177 17.5494 8.64271C17.7331 8.98733 17.7526 9.29456 17.7786 9.66844L17.8437 10.3122H15.259C15.1891 10.0147 15.1501 9.76598 15.0038 9.43599C15.4508 8.99545 15.9271 8.63783 16.5091 8.54029ZM13.3376 7.98435C13.5846 7.87543 13.8399 7.78278 14.0626 7.69662C13.9358 7.83479 13.8187 7.97622 13.7131 8.1274C13.5944 8.07863 13.4692 8.02986 13.3376 7.98435Z" fill="black"/>
</svg>
