<svg width="23" height="23" viewBox="0 0 23 23" fill="none" xmlns="http://www.w3.org/2000/svg">
<path d="M19.7761 3.36589e-06H2.37329C1.74386 3.36589e-06 1.1402 0.250437 0.695121 0.696211C0.250043 1.14198 0 1.74658 0 2.377L0 19.807C0 20.4374 0.250043 21.042 0.695121 21.4878C1.1402 21.9336 1.74386 22.184 2.37329 22.184H9.16268V14.642H6.04356V11.092H9.15869V8.386C9.15869 5.309 10.9878 3.609 13.7895 3.609C14.709 3.62191 15.6263 3.70213 16.5342 3.849V6.869H14.9886C14.7252 6.83422 14.4574 6.85918 14.205 6.94203C13.9525 7.02488 13.7219 7.16351 13.5302 7.34767C13.3385 7.53182 13.1905 7.75678 13.0973 8.00593C13.0041 8.25506 12.968 8.52201 12.9917 8.787V11.092H16.3924L15.8482 14.642H12.9907V22.184H19.7801C20.4095 22.184 21.0132 21.9336 21.4583 21.4878C21.9033 21.042 22.1534 20.4374 22.1534 19.807V2.377C22.1534 2.06451 22.0919 1.75509 21.9723 1.46644C21.8528 1.17779 21.6777 0.915572 21.4569 0.694795C21.236 0.474017 20.9739 0.299012 20.6855 0.179792C20.3971 0.0605725 20.0881 -0.000522488 19.7761 3.36589e-06Z" fill="black"/>
</svg>
