<svg width="18" height="21" viewBox="0 0 18 21" fill="none" xmlns="http://www.w3.org/2000/svg">
<path d="M13.4101 12.9456V10.8813H17.4698V20.1642H2.85054V17.1267H6.36383V15.0362H9.77538V12.9456H13.4101ZM3.42159 8.50023L3.10981 8.24753C3.10444 8.24606 3.09877 8.24606 3.0934 8.24753C3.09025 8.24769 3.08716 8.24851 3.08434 8.24992C3.08152 8.25133 3.07901 8.25331 3.07699 8.25573L2.54368 8.91211C2.54221 8.91749 2.54221 8.92315 2.54368 8.92852C2.54414 8.93178 2.54525 8.93491 2.54694 8.93772C2.54863 8.94054 2.55087 8.94299 2.55352 8.94493L2.85874 9.18944C2.86464 9.19112 2.87089 9.19112 2.87679 9.18944C2.87974 9.18938 2.88262 9.1886 2.8852 9.18717C2.88777 9.18574 2.88996 9.1837 2.89156 9.18123L3.42487 8.52485C3.42596 8.52225 3.42651 8.51946 3.42651 8.51664C3.42651 8.51383 3.42596 8.51104 3.42487 8.50844C3.4247 8.50529 3.42389 8.5022 3.42248 8.49938C3.42107 8.49656 3.41909 8.49405 3.41667 8.49203L3.42159 8.50023ZM2.52727 5.46118L3.61194 6.33909L4.11736 5.74343C4.1536 5.69849 4.20605 5.66961 4.2634 5.66302C4.32201 5.65621 4.38095 5.67271 4.4275 5.70897C4.65559 5.44805 4.88204 5.18058 5.10521 4.91803C5.26931 4.7047 5.4334 4.51107 5.5975 4.34041C5.75395 4.16805 5.93084 4.0154 6.12425 3.88586C6.33214 3.74995 6.56036 3.64803 6.80032 3.58393C7.0948 3.50881 7.3973 3.46968 7.70121 3.46742H7.71433C7.96376 3.45429 8.25585 3.46742 8.50035 3.46742H8.80229C10.0297 3.46742 10.6402 4.06801 11.1128 4.53568C11.2096 4.63086 11.3015 4.72111 11.3868 4.79331C11.458 4.86049 11.5394 4.91588 11.628 4.95741C11.6674 4.97054 11.7724 4.91803 11.8889 4.85895C11.9818 4.81009 12.0777 4.76733 12.1761 4.73096C12.5863 4.54225 13.0064 4.31415 13.415 4.14678C13.5017 4.11113 13.5957 4.09705 13.6891 4.10575C13.7875 4.1148 13.8833 4.14265 13.9713 4.1878C14.0359 4.2204 14.096 4.26122 14.1502 4.30923C14.2054 4.35777 14.2544 4.41287 14.2962 4.47333V4.48153C14.3399 4.54394 14.3752 4.6118 14.4012 4.68337C14.4705 4.88779 14.4612 5.11068 14.375 5.30857C14.3455 5.39161 14.3034 5.46964 14.2503 5.53995C14.1477 5.67748 14.0075 5.78236 13.8466 5.84188C13.5397 5.99121 13.2312 6.14382 12.9211 6.27674C12.6615 6.39791 12.3913 6.4946 12.1137 6.56555C11.7958 6.62933 11.4684 6.62933 11.1505 6.56555H11.121C10.7493 6.44996 10.4091 6.25067 10.1265 5.98301L9.96244 7.56325C10.0888 7.62889 10.2135 7.68632 10.3349 7.73883C10.4843 7.80283 10.627 7.85862 10.7665 7.91277C11.6559 8.25901 12.3878 8.54618 12.6306 9.90489C12.6602 10.069 12.6881 10.3972 12.711 10.7746C12.7488 11.3407 12.7767 12.002 12.7832 12.2433C12.7848 12.253 12.7848 12.263 12.7832 12.2728C12.7768 12.2967 12.7627 12.3177 12.7432 12.3329C12.7236 12.348 12.6997 12.3563 12.6749 12.3565H12.6569C12.6221 12.3618 12.587 12.3651 12.5519 12.3663H12.2663C11.9382 12.3663 11.5263 12.3663 11.3326 12.3663H11.2851C11.2161 12.3663 11.1833 12.3663 11.1406 12.3204C11.126 12.3027 11.1153 12.2822 11.1091 12.2602C11.1028 12.2382 11.1013 12.2151 11.1046 12.1924V12.1267C11.0898 11.8527 11.0602 11.3932 11.0307 10.9781C11.0077 10.6827 10.9864 10.4169 10.9684 10.2757C10.9615 10.227 10.9517 10.1788 10.9388 10.1313C10.9254 10.0866 10.9079 10.0432 10.8863 10.0017L10.8715 9.97545C10.8223 9.8852 10.778 9.80151 10.7435 9.78839C10.6795 9.76213 10.5942 9.73423 10.4958 9.7047C10.3973 9.67516 10.2529 9.63578 10.1233 9.60132C9.99362 9.56686 9.84101 9.53076 9.68348 9.49465L9.30934 9.41096C9.20104 9.86223 9.11407 10.3381 9.0271 10.8386C8.81049 12.025 8.58076 13.282 8.14919 14.2846C8.13788 14.3113 8.11687 14.3328 8.09038 14.3447C8.0639 14.3565 8.0339 14.3579 8.00642 14.3486C7.88967 14.3661 7.77166 14.3738 7.65362 14.3716C7.30409 14.3716 6.82001 14.3716 6.61161 14.3584H6.56566C6.4951 14.3584 6.459 14.3584 6.41962 14.301C6.40646 14.2806 6.39801 14.2574 6.39489 14.2333C6.39177 14.2092 6.39405 14.1847 6.40157 14.1615L6.41305 14.1074C6.43439 13.9974 6.46885 13.8268 6.51315 13.6151L6.69694 12.7602C6.81837 12.1973 6.98411 11.4474 7.14492 10.727C7.35332 9.7851 7.53875 8.96298 7.60275 8.68074C7.54367 8.61346 7.4846 8.54454 7.43865 8.47234C7.36983 8.38052 7.30838 8.2834 7.25487 8.18189C7.19512 8.06609 7.15045 7.94311 7.12195 7.81596C7.09277 7.68232 7.08667 7.54469 7.1039 7.409L7.38614 5.21176C7.28643 5.21262 7.18822 5.23619 7.09897 5.28068C7.00836 5.33208 6.92641 5.39742 6.85611 5.47431C6.77571 5.55964 6.69202 5.66302 6.60997 5.77296C6.54269 5.85829 6.47213 5.95019 6.38516 6.05193C6.17347 6.29807 5.96015 6.55406 5.74518 6.80184C5.75921 6.83803 5.76341 6.87728 5.75736 6.91561C5.75131 6.95394 5.73522 6.98999 5.71072 7.02009L5.18726 7.61904L6.26865 8.49695C6.33004 8.54699 6.36997 8.61862 6.38024 8.69715C6.38463 8.73747 6.38094 8.77827 6.36939 8.81715C6.35784 8.85603 6.33865 8.89222 6.31296 8.9236L5.84364 9.51763C5.43075 9.48558 5.02159 9.41638 4.62113 9.31087C4.22758 9.2067 3.8455 9.06321 3.48066 8.88258L3.66773 8.6512C3.6884 8.62592 3.70386 8.5968 3.71324 8.56552C3.72261 8.53424 3.72571 8.50142 3.72235 8.46894C3.719 8.43645 3.70926 8.40495 3.69369 8.37625C3.67812 8.34755 3.65703 8.3222 3.63163 8.30168L3.27062 8.00795C3.24534 7.98728 3.21622 7.97182 3.18494 7.96244C3.15366 7.95307 3.12084 7.94997 3.08835 7.95333C3.05587 7.95668 3.02437 7.96642 2.99567 7.98199C2.96697 7.99756 2.94162 8.01865 2.9211 8.04405L2.73731 8.2705C2.49311 7.95712 2.27988 7.62079 2.10062 7.26623C1.91106 6.88319 1.75778 6.48324 1.64279 6.07162L2.10062 5.50877C2.15204 5.44533 2.22652 5.40487 2.30773 5.39626C2.38894 5.38765 2.47024 5.41159 2.53383 5.46282L2.52727 5.46118ZM4.14033 6.27181L3.89254 6.56391L4.91486 7.38438L5.10521 7.16449C4.81476 6.91507 4.41437 6.55734 4.15838 6.28987L4.14033 6.27017V6.27181ZM5.56468 9.84582L4.28966 11.4179C4.26453 11.4495 4.23325 11.4757 4.19771 11.4948C4.16217 11.514 4.12311 11.5258 4.0829 11.5294C4.00171 11.5382 3.92034 11.5146 3.85644 11.4638L0.115062 8.4346C0.0511995 8.38287 0.0104763 8.30792 0.00183569 8.22619C-0.00261527 8.18612 0.00104792 8.14557 0.0126068 8.10695C0.0241658 8.06832 0.0433837 8.03242 0.0691149 8.00138L1.35563 6.41458C1.46703 6.75252 1.60361 7.08163 1.76422 7.39915C1.96831 7.8075 2.21589 8.19262 2.50265 8.54782L2.29918 8.79889C2.2786 8.82427 2.26325 8.85348 2.25401 8.88482C2.24477 8.91616 2.24182 8.94902 2.24533 8.9815C2.24883 9.01399 2.25873 9.04546 2.27445 9.07411C2.29017 9.10275 2.3114 9.128 2.33692 9.14841L2.69793 9.44214C2.72321 9.46281 2.75233 9.47827 2.78361 9.48765C2.81489 9.49702 2.84771 9.50012 2.8802 9.49676C2.91268 9.49341 2.94418 9.48367 2.97288 9.4681C3.00158 9.45253 3.02693 9.43144 3.04745 9.40604L3.25914 9.14513L3.24929 9.16318C3.6622 9.37397 4.0969 9.53905 4.54565 9.65547C4.88008 9.74431 5.22072 9.80794 5.56468 9.84582ZM12.5798 12.258C12.5798 12.2695 12.5798 12.2712 12.5798 12.258V12.258ZM8.64147 0.114944C8.82859 0.0370932 9.02956 -0.001984 9.23222 7.75164e-05C9.53444 -0.00108938 9.83018 0.0876997 10.0818 0.255142C10.3334 0.422585 10.5295 0.661107 10.6451 0.940346C10.7232 1.12519 10.7634 1.32385 10.7632 1.52453C10.7644 1.82675 10.6756 2.12249 10.5082 2.37409C10.3407 2.62569 10.1022 2.82178 9.82296 2.93739C9.63811 3.0155 9.43946 3.05568 9.23878 3.05554C9.03843 3.05568 8.83998 3.01666 8.6546 2.94067C8.28324 2.78663 7.98816 2.49155 7.83412 2.12019C7.7548 1.93394 7.71405 1.73353 7.71433 1.53109C7.71263 1.22961 7.80045 0.934414 7.96667 0.682893C8.13289 0.431373 8.37003 0.234851 8.64804 0.118226L8.64147 0.114944Z" fill="black" />
</svg>
