<svg width="24" height="23" viewBox="0 0 24 23" fill="none" xmlns="http://www.w3.org/2000/svg">
<path d="M11.6471 5.57523C10.4887 5.57523 9.35638 5.91926 8.39323 6.56383C7.43008 7.20839 6.67939 8.12453 6.2361 9.19641C5.79281 10.2683 5.67682 11.4477 5.90281 12.5856C6.1288 13.7235 6.68661 14.7687 7.5057 15.5891C8.3248 16.4095 9.36839 16.9682 10.5045 17.1945C11.6406 17.4209 12.8182 17.3047 13.8884 16.8607C14.9586 16.4167 15.8734 15.6649 16.5169 14.7002C17.1605 13.7355 17.504 12.6014 17.504 11.4412C17.5052 10.6706 17.3545 9.90724 17.0606 9.195C16.7666 8.48277 16.3353 7.83564 15.7912 7.2907C15.2471 6.74575 14.601 6.31371 13.8898 6.01934C13.1787 5.72496 12.4166 5.57404 11.6471 5.57523ZM11.6471 15.2552C10.894 15.2552 10.1577 15.0315 9.53148 14.6125C8.90525 14.1934 8.41716 13.5977 8.12894 12.9008C7.84072 12.2039 7.76531 11.437 7.91224 10.6972C8.05918 9.95731 8.42186 9.27772 8.95442 8.74432C9.48699 8.21092 10.1655 7.84767 10.9042 7.70051C11.6429 7.55335 12.4086 7.62888 13.1044 7.91755C13.8002 8.20622 14.395 8.69507 14.8134 9.32228C15.2318 9.94949 15.4552 10.6869 15.4552 11.4412C15.4533 12.4522 15.0515 13.4212 14.3378 14.1361C13.624 14.851 12.6565 15.2534 11.6471 15.2552ZM19.1095 5.33523C19.1087 5.60562 19.0279 5.86971 18.8773 6.09415C18.7268 6.31859 18.5132 6.49331 18.2635 6.59624C18.0139 6.69917 17.7394 6.72569 17.4747 6.67245C17.21 6.61922 16.967 6.48861 16.7764 6.29714C16.5858 6.10566 16.4561 5.8619 16.4037 5.59664C16.3513 5.33139 16.3786 5.05653 16.4821 4.8068C16.5856 4.55706 16.7607 4.34364 16.9852 4.1935C17.2097 4.04336 17.4736 3.96323 17.7436 3.96323C17.9234 3.96283 18.1015 3.99807 18.2677 4.06693C18.4338 4.13579 18.5847 4.2369 18.7117 4.36443C18.8387 4.49197 18.9392 4.6434 19.0075 4.81002C19.0757 4.97663 19.1104 5.15513 19.1095 5.33523ZM22.9894 6.72323C23.0271 4.9445 22.3643 3.22238 21.1443 1.92923C19.8505 0.711471 18.1329 0.0483053 16.3578 0.0812266C14.4717 -0.0257734 8.81854 -0.0257734 6.93249 0.0812266C5.15755 0.0456272 3.43917 0.707131 2.14497 1.92423C0.927002 3.21866 0.264526 4.93991 0.299851 6.71823C0.193018 8.60723 0.193018 14.2692 0.299851 16.1582C0.262159 17.937 0.924968 19.6591 2.14497 20.9522C3.43917 22.1692 5.15653 22.8323 6.93149 22.8002C8.81754 22.9072 14.4707 22.9072 16.3568 22.8002C18.1327 22.838 19.8521 22.1741 21.1433 20.9522C22.3583 19.6579 23.0207 17.9395 22.9894 16.1632C23.0962 14.2742 23.0962 8.61723 22.9894 6.72823V6.72323ZM20.5532 18.1852C20.3596 18.6781 20.0668 19.1258 19.693 19.5005C19.3193 19.8752 18.8725 20.1689 18.3806 20.3632C16.8769 20.9632 13.3085 20.8222 11.6471 20.8222C9.98572 20.8222 6.4153 20.9522 4.91764 20.3632C4.42618 20.1691 3.97981 19.8758 3.60624 19.5017C3.23267 19.1275 2.93988 18.6805 2.74603 18.1882C2.14697 16.6822 2.28775 13.1082 2.28775 11.4442C2.28775 9.78023 2.15495 6.20123 2.74603 4.70023C2.93953 4.20745 3.23218 3.7598 3.60576 3.38511C3.97935 3.01043 4.42589 2.71671 4.91764 2.52223C6.4153 1.92423 9.98572 2.06323 11.6471 2.06323C13.3085 2.06323 16.8819 1.93023 18.3806 2.52223C18.8721 2.71638 19.3184 3.00963 19.692 3.38378C20.0656 3.75794 20.3584 4.205 20.5522 4.69723C21.1513 6.20323 21.0105 9.77723 21.0105 11.4412C21.0105 13.1052 21.1493 16.6842 20.5522 18.1852H20.5532Z" fill="black"/>
</svg>
