<svg width="21" height="21" viewBox="0 0 21 21" fill="none" xmlns="http://www.w3.org/2000/svg">
<path d="M0.814319 0.995117H8.04384C8.25963 0.995595 8.46641 1.0817 8.61875 1.23453C8.69472 1.30983 8.75511 1.39936 8.79646 1.498C8.83782 1.59665 8.85934 1.70247 8.85979 1.80944V9.00639C8.85979 9.22236 8.774 9.42948 8.62128 9.5822C8.46857 9.73491 8.26144 9.82071 8.04547 9.82071H0.814319C0.706922 9.8209 0.600547 9.79984 0.501321 9.75876C0.402094 9.71767 0.311975 9.65736 0.236153 9.5813L0.221495 9.56338C0.0795295 9.41263 0.000326856 9.21346 0 9.00639L0 1.80944C0 1.59347 0.0857941 1.38634 0.238509 1.23363C0.391223 1.08091 0.598348 0.995117 0.814319 0.995117V0.995117ZM11.9689 11.9933H19.1951C19.4104 11.9954 19.6163 12.0819 19.7686 12.2342C19.9209 12.3864 20.0073 12.5923 20.0094 12.8076V20.0013C20.0094 20.2173 19.9237 20.4244 19.7709 20.5771C19.6182 20.7299 19.4111 20.8156 19.1951 20.8156H11.9689C11.7563 20.8152 11.5523 20.7316 11.4005 20.5827L11.3858 20.5648C11.241 20.4143 11.1604 20.2134 11.1611 20.0046V12.8109C11.1609 12.7035 11.1819 12.5971 11.223 12.4979C11.2641 12.3987 11.3244 12.3085 11.4005 12.2327L11.4168 12.2164C11.5678 12.0725 11.7684 11.9921 11.977 11.9917L11.9689 11.9933ZM0.814319 11.9933H8.04384C8.25963 11.9938 8.46641 12.0799 8.61875 12.2327C8.69535 12.3079 8.75614 12.3976 8.79753 12.4966C8.83893 12.5956 8.8601 12.7019 8.85979 12.8093V20.003C8.85979 20.2189 8.774 20.4261 8.62128 20.5788C8.46857 20.7315 8.26144 20.8173 8.04547 20.8173H0.814319C0.706922 20.8175 0.600547 20.7964 0.501321 20.7553C0.402094 20.7142 0.311975 20.6539 0.236153 20.5779L0.221495 20.5599C0.0799136 20.4096 0.000740128 20.2111 0 20.0046L0 12.8109C0 12.5949 0.0857941 12.3878 0.238509 12.2351C0.391223 12.0824 0.598348 11.9966 0.814319 11.9966V11.9933ZM11.9689 0.995117H19.1951C19.4111 0.995117 19.6182 1.08091 19.7709 1.23363C19.9237 1.38634 20.0094 1.59347 20.0094 1.80944V9.00639C20.0094 9.22236 19.9237 9.42948 19.7709 9.5822C19.6182 9.73491 19.4111 9.82071 19.1951 9.82071H11.9689C11.7529 9.82071 11.5458 9.73491 11.3931 9.5822C11.2403 9.42948 11.1545 9.22236 11.1545 9.00639V1.80944C11.1556 1.70213 11.1779 1.5961 11.2201 1.49744C11.2623 1.39877 11.3236 1.30942 11.4005 1.23453L11.4168 1.21987C11.5658 1.07786 11.763 0.997561 11.9689 0.995117V0.995117Z" fill="black"/>
</svg>
