<svg width="20" height="17" viewBox="0 0 20 17" fill="none" xmlns="http://www.w3.org/2000/svg">
<path fill-rule="evenodd" clip-rule="evenodd" d="M0 7.82892H3.77649V15.1509H0V7.82892ZM8.53575 3.54315L10.3125 1.096C10.3351 1.06487 10.3647 1.0395 10.3989 1.02197C10.4331 1.00444 10.471 0.995241 10.5094 0.99512H17.5434C17.5861 0.994927 17.6281 1.00595 17.6652 1.02707C17.7023 1.0482 17.7332 1.0787 17.7549 1.11552L19.5252 3.53664C19.5669 3.58248 19.59 3.64224 19.59 3.70424C19.59 3.76623 19.5669 3.82599 19.5252 3.87183L14.2648 9.50809C14.243 9.53159 14.2168 9.55058 14.1876 9.56395C14.1585 9.57733 14.127 9.58484 14.095 9.58605C14.0629 9.58725 14.031 9.58214 14.0009 9.571C13.9709 9.55986 13.9433 9.5429 13.9198 9.5211L13.9052 9.50483L8.53575 3.87345C8.52515 3.86265 8.51586 3.85064 8.50809 3.83766C8.48405 3.79846 8.47112 3.75347 8.47066 3.70749C8.46978 3.64735 8.4919 3.58915 8.53249 3.54478L8.53575 3.54315ZM12.5482 3.94993L14.0825 8.54973L15.5843 3.94993H12.5482ZM16.0985 3.94993L14.6553 8.37237L18.7783 3.94993H16.0985ZM13.513 8.38539L12.0405 3.94993H9.28909L13.5195 8.38539H13.513ZM10.9748 1.48325L12.2162 3.28282L13.5423 1.48325H10.9748ZM14.5235 1.48325L15.9065 3.28282L17.0845 1.48325H14.5235ZM17.5547 1.66711L16.3751 3.45692H18.858L17.5564 1.66711H17.5547ZM15.4249 3.45692L14.0305 1.64596L12.6914 3.45854L15.4249 3.45692ZM11.7428 3.45692L10.5045 1.66711L9.20286 3.45692H11.7428ZM4.60468 14.5212V8.42281H7.35122C8.51622 8.63108 9.68122 9.2624 10.8446 9.99459H12.9793C13.9442 10.0532 14.4437 11.0327 13.5114 11.6754C12.7646 12.2221 11.7769 12.1928 10.7632 12.1033C10.0652 12.0675 10.0359 13.0063 10.7632 13.0096C11.0171 13.0291 11.292 12.9689 11.5312 12.9689C12.7955 12.9673 13.8303 12.7265 14.4714 11.734L14.7968 10.9871L17.9713 9.41534C19.5593 8.89142 20.6869 10.5543 19.517 11.7095C17.3015 13.324 14.9317 14.7154 12.4424 15.8635C10.6917 16.9293 8.93927 16.8935 7.19014 15.8635L4.60468 14.5293V14.5212Z" fill="black"/>
</svg>
