<svg width="18" height="25" viewBox="0 0 18 25" fill="none" xmlns="http://www.w3.org/2000/svg">
<path d="M13.6864 18.7886H17.3326C17.5259 18.7886 17.6861 18.9468 17.6861 19.1421V24.6397C17.6861 24.833 17.5279 24.9932 17.3326 24.9932H13.6864C13.493 24.9932 13.3329 24.835 13.3329 24.6397V19.1421C13.3329 18.9487 13.493 18.7886 13.6864 18.7886ZM2.98804 2.62975C7.28652 -0.342665 7.60876 5.53967 11.8291 1.86809V7.86175C7.80405 11.4825 6.93498 5.63146 2.98804 8.60583V2.62975ZM1.92758 0.995117C2.38067 0.995117 2.74782 1.36227 2.74782 1.81536C2.74782 2.11612 2.58573 2.37977 2.34551 2.52234H2.38457V9.78932H4.00163C4.19497 9.78932 4.35511 9.94751 4.35511 10.1428V24.6416C4.35511 24.835 4.19692 24.9951 4.00163 24.9951H0.353487C0.160143 24.9951 0 24.8369 0 24.6416V10.1428C0 9.94947 0.15819 9.78932 0.353487 9.78932H1.47254V2.52234H1.5116C1.26943 2.37977 1.10733 2.11612 1.10733 1.81536C1.10733 1.36227 1.47449 0.995117 1.92758 0.995117ZM7.01896 14.0234H10.6651C10.8585 14.0234 11.0186 14.1815 11.0186 14.3768V24.6416C11.0186 24.835 10.8604 24.9951 10.6651 24.9951H7.01896C6.82562 24.9951 6.66547 24.8369 6.66547 24.6416V14.3768C6.66743 14.1815 6.82562 14.0234 7.01896 14.0234Z" fill="black"/>
</svg>
