<svg width="21" height="17" viewBox="0 0 21 17" fill="none" xmlns="http://www.w3.org/2000/svg">
<path fill-rule="evenodd" clip-rule="evenodd" d="M7.71397 7.02697H7.70713L6.5893 9.79933L6.20985 8.06105H6.36197C6.50042 8.06105 6.61323 7.94824 6.61323 7.80979V7.40129C6.61323 7.26284 6.50042 7.15003 6.36197 7.15003H5.45266C5.31422 7.15003 5.20141 7.26284 5.20141 7.40129V7.80979C5.20141 7.94824 5.31422 8.06105 5.45266 8.06105H5.6082L5.21679 9.7754L4.15536 7.02697C2.91276 7.07995 1.61888 8.15847 0.858271 9.76343C0.412164 10.7052 0.294227 11.4145 0.22073 12.4213C0.072028 13.4366 -0.004887 14.4416 0.000240673 15.4329C0.24466 16.9764 2.20172 16.5183 2.36752 15.4329L2.6051 12.3221C2.64099 11.8521 2.67347 11.5342 2.86319 11.0864C2.95207 10.8761 3.05975 10.6967 3.18623 10.548L3.30417 16.2311L3.23751 16.7063H8.61985L8.54807 16.1764L8.65233 9.90872C9.19757 9.68823 9.67103 9.58567 10.0864 9.56858C10.0659 9.61131 10.0436 9.65404 10.0231 9.69677C9.57702 10.6386 9.45908 11.3479 9.38559 12.3546C9.23859 13.3682 9.15997 14.3732 9.1651 15.3646C9.40952 16.908 11.3666 16.4499 11.5324 15.3646L11.77 12.2538C11.8058 11.7837 11.8383 11.4658 12.028 11.018C12.1169 10.8078 12.2246 10.6283 12.3511 10.4796L12.469 16.1628L12.3904 16.7166H17.795L17.7129 16.1098L17.7967 11.218V11.3137L17.8138 10.4813C17.9403 10.63 18.0462 10.8095 18.1368 11.0197C18.3282 11.4675 18.359 11.7854 18.3949 12.2555L18.6325 15.3663C18.6581 15.5286 18.7231 15.6773 18.8154 15.8055H20.8613C20.9246 15.6825 20.9724 15.5355 20.9998 15.3663C21.0049 14.3732 20.928 13.3699 20.7793 12.3563C20.7058 11.3496 20.5878 10.6403 20.1417 9.69848C19.3606 8.04908 18.3505 7.17567 16.8173 6.9962L15.7371 9.73267L15.373 8.05934H15.5473C15.6858 8.05934 15.7986 7.94653 15.7986 7.80808V7.39958C15.7986 7.26113 15.6858 7.14832 15.5473 7.14832H14.6363C14.4979 7.14832 14.3851 7.26113 14.3851 7.39958V7.80808C14.3851 7.94653 14.4979 8.05934 14.6363 8.05934H14.7406L14.3646 9.70874L13.339 6.9774C13.1031 7.00987 12.8707 7.05773 12.6451 7.1261C12.0554 7.04406 11.276 6.94321 10.4983 6.9398C9.35995 6.93809 8.22844 7.13294 7.71397 7.02697ZM15.0927 0.995117C16.6327 0.995117 17.8821 2.24456 17.8821 3.78457C17.8821 5.32458 16.6327 6.57402 15.0927 6.57402C13.5527 6.57402 12.3032 5.32458 12.3032 3.78457C12.3032 2.24456 13.5527 0.995117 15.0927 0.995117ZM5.90732 0.995117C7.44733 0.995117 8.69677 2.24456 8.69677 3.78457C8.69677 5.32458 7.44733 6.57402 5.90732 6.57402C4.36731 6.57402 3.11786 5.32458 3.11786 3.78457C3.11786 2.24456 4.36731 0.995117 5.90732 0.995117Z" fill="black"/>
</svg>
