<svg width="97" height="20" viewBox="0 0 97 20" fill="none" xmlns="http://www.w3.org/2000/svg">
<g clip-path="url(#clip0_98_1096)">
<path d="M10.0683 4.1653L11.6654 7.19253L11.7569 7.36592L11.9501 7.39935L15.3227 7.9829L12.9372 10.4374L12.8006 10.578L12.8285 10.772L13.3157 14.1599L10.2442 12.6496L10.0683 12.5631L9.89233 12.6496L6.82082 14.1599L7.30803 10.772L7.33593 10.578L7.1993 10.4374L4.81379 7.9829L8.18641 7.39935L8.37959 7.36592L8.47107 7.19253L10.0683 4.1653Z" fill="#F4831F" stroke="#F4831F" stroke-width="0.797412"/>
</g>
<g clip-path="url(#clip1_98_1096)">
<path d="M29.2055 4.1653L30.8027 7.19253L30.8941 7.36592L31.0873 7.39935L34.4599 7.9829L32.0744 10.4374L31.9378 10.578L31.9657 10.772L32.4529 14.1599L29.3814 12.6496L29.2055 12.5631L29.0295 12.6496L25.958 14.1599L26.4452 10.772L26.4731 10.578L26.3365 10.4374L23.951 7.9829L27.3236 7.39935L27.5168 7.36592L27.6083 7.19253L29.2055 4.1653Z" fill="#F4831F" stroke="#F4831F" stroke-width="0.797412"/>
</g>
<g clip-path="url(#clip2_98_1096)">
<path d="M48.3441 4.1653L49.9413 7.19253L50.0328 7.36592L50.226 7.39935L53.5986 7.9829L51.2131 10.4374L51.0765 10.578L51.1044 10.772L51.5916 14.1599L48.5201 12.6496L48.3441 12.5631L48.1682 12.6496L45.0967 14.1599L45.5839 10.772L45.6118 10.578L45.4752 10.4374L43.0897 7.9829L46.4623 7.39935L46.6555 7.36592L46.747 7.19253L48.3441 4.1653Z" fill="#F4831F" stroke="#F4831F" stroke-width="0.797412"/>
</g>
<g clip-path="url(#clip3_98_1096)">
<path d="M67.4813 4.1653L69.0785 7.19253L69.17 7.36592L69.3632 7.39935L72.7358 7.9829L70.3503 10.4374L70.2137 10.578L70.2416 10.772L70.7288 14.1599L67.6573 12.6496L67.4813 12.5631L67.3054 12.6496L64.2339 14.1599L64.7211 10.772L64.749 10.578L64.6124 10.4374L62.2269 7.9829L65.5995 7.39935L65.7927 7.36592L65.8842 7.19253L67.4813 4.1653Z" fill="#F4831F" stroke="#F4831F" stroke-width="0.797412"/>
</g>
<g clip-path="url(#clip4_98_1096)">
<path d="M86.6195 4.1653L88.2167 7.19253L88.3082 7.36592L88.5014 7.39935L91.874 7.9829L89.4885 10.4374L89.3519 10.578L89.3798 10.772L89.867 14.1599L86.7955 12.6496L86.6195 12.5631L86.4436 12.6496L83.3721 14.1599L83.8593 10.772L83.8872 10.578L83.7506 10.4374L81.3651 7.9829L84.7377 7.39935L84.9309 7.36592L85.0223 7.19253L86.6195 4.1653Z" stroke="#F4831F" stroke-width="0.797412"/>
</g>
<defs>
<clipPath id="clip0_98_1096">
<rect width="12.7586" height="12.7586" fill="white" transform="translate(3.68896 3.31088)"/>
</clipPath>
<clipPath id="clip1_98_1096">
<rect width="12.7586" height="12.7586" fill="white" transform="translate(22.8262 3.31088)"/>
</clipPath>
<clipPath id="clip2_98_1096">
<rect width="12.7586" height="12.7586" fill="white" transform="translate(41.9648 3.31088)"/>
</clipPath>
<clipPath id="clip3_98_1096">
<rect width="12.7586" height="12.7586" fill="white" transform="translate(61.1021 3.31088)"/>
</clipPath>
<clipPath id="clip4_98_1096">
<rect width="12.7586" height="12.7586" fill="white" transform="translate(80.2402 3.31088)"/>
</clipPath>
</defs>
</svg>
