<svg width="21" height="19" viewBox="0 0 21 19" fill="none" xmlns="http://www.w3.org/2000/svg">
<path fill-rule="evenodd" clip-rule="evenodd" d="M6.04004 3.81517H18.4739V9.06731H6.04004V3.81517ZM4.00277 16.6678C3.88826 17.0506 3.72418 17.36 3.52421 17.601H18.6448H18.6517C19.1969 17.5702 19.6036 17.4249 19.8754 17.1668C20.142 16.9139 20.2907 16.5362 20.3232 16.0354V1.67364H4.16342V15.3569C4.16342 15.938 4.17026 16.1072 4.00277 16.6678ZM2.2475 18.2795C2.17059 18.2846 2.09197 18.2846 2.01506 18.2812C1.704 18.2624 1.39806 18.1667 1.12118 18.0043C0.514446 17.6471 0.0461463 16.9635 0.00341825 16.0696C0.00170912 16.0559 0 16.0405 0 16.0269V3.99463C0 3.80663 0.152112 3.65622 0.338406 3.65622H3.4849V1.33352C3.4849 1.14552 3.63701 0.995117 3.82331 0.995117H20.6616C20.8496 0.995117 21 1.14723 21 1.33352V16.0439C21 16.0627 20.9983 16.0798 20.9966 16.0969C20.9504 16.7635 20.7317 17.2848 20.3403 17.6574C19.9506 18.0282 19.4003 18.235 18.6876 18.2761C18.6739 18.2778 18.6585 18.2795 18.6431 18.2795H2.2475ZM2.05949 17.6061C2.07659 17.6027 2.09539 17.601 2.11419 17.601H2.23724C2.37226 17.5873 2.50387 17.5497 2.62692 17.4847C3.38065 17.0899 3.4849 16.126 3.4849 15.362V4.33304H0.678522V16.0251C0.678522 16.0286 0.678522 16.0337 0.678522 16.0371C0.710995 16.6797 1.04086 17.1686 1.46643 17.4198C1.65101 17.5292 1.85269 17.5924 2.05266 17.6044L2.05949 17.6061ZM6.98519 5.12265H7.65175L8.51827 6.57882V5.12265H9.19167V7.75812H8.51827L7.65687 6.31049V7.75812H6.9869V5.12265H6.98519ZM9.77789 5.12265H11.687V5.68666H10.494V6.10711H11.5998V6.64377H10.494V7.16334H11.7229V7.75983H9.77789V5.12265ZM11.9844 5.12265H12.6612L12.9039 6.59421L13.2611 5.12265H13.9328L14.2917 6.59591L14.5361 5.12265H15.2112L14.7019 7.75812H14.0028L13.5978 6.09856L13.1944 7.75812H12.4954L11.9844 5.12265ZM15.4351 6.88817L16.1119 6.84032C16.1256 6.96509 16.1563 7.0608 16.2008 7.12574C16.2743 7.23171 16.3785 7.28469 16.5153 7.28469C16.6161 7.28469 16.6947 7.25735 16.7494 7.20265C16.8041 7.14796 16.8314 7.08472 16.8314 7.01294C16.8314 6.94458 16.8058 6.88305 16.7528 6.83006C16.7016 6.77537 16.5785 6.72581 16.3888 6.67795C16.076 6.59762 15.8538 6.49166 15.7205 6.35835C15.5855 6.22503 15.5188 6.05583 15.5188 5.85074C15.5188 5.71572 15.553 5.58753 15.6214 5.46789C15.6898 5.34655 15.794 5.25254 15.9307 5.18418C16.0692 5.11581 16.2589 5.08163 16.4982 5.08163C16.7938 5.08163 17.0177 5.14487 17.1733 5.26963C17.3288 5.3944 17.4194 5.59437 17.4501 5.86783L16.7802 5.91397C16.7631 5.79434 16.7255 5.70717 16.6674 5.65248C16.6093 5.59779 16.5306 5.57044 16.4298 5.57044C16.3478 5.57044 16.2845 5.59095 16.2418 5.63026C16.1991 5.66957 16.1786 5.71913 16.1786 5.77724C16.1786 5.81826 16.1957 5.85586 16.2298 5.89005C16.2623 5.92423 16.3426 5.9567 16.4674 5.98747C16.7785 6.06438 17.0024 6.14129 17.1357 6.21991C17.2707 6.29853 17.3681 6.39595 17.4296 6.51217C17.4912 6.62839 17.5219 6.75828 17.5219 6.90185C17.5219 7.07105 17.4809 7.22658 17.3989 7.37015C17.3168 7.512 17.2023 7.62139 17.0553 7.69488C16.9084 7.76837 16.7238 7.80597 16.4999 7.80597C16.1068 7.80597 15.835 7.71881 15.6846 7.54619C15.5411 7.37186 15.4556 7.15309 15.4351 6.88817ZM6.11866 11.3951C5.93066 11.3951 5.78026 11.243 5.78026 11.0567C5.78026 10.8704 5.93237 10.7183 6.11866 10.7183H11.2888C11.4751 10.7183 11.6272 10.8704 11.6272 11.0567C11.6272 11.243 11.4751 11.3951 11.2888 11.3951H6.11866ZM12.7723 11.3951C12.5843 11.3951 12.4322 11.243 12.4322 11.055C12.4322 10.867 12.5843 10.7149 12.7723 10.7149H18.3491C18.5372 10.7149 18.6893 10.867 18.6893 11.055C18.6893 11.243 18.5372 11.3951 18.3491 11.3951H12.7723ZM12.7723 13.3623C12.5843 13.3623 12.4322 13.2102 12.4322 13.0222C12.4322 12.8342 12.5843 12.6821 12.7723 12.6821H18.3491C18.5372 12.6821 18.6893 12.8342 18.6893 13.0222C18.6893 13.2102 18.5372 13.3623 18.3491 13.3623H12.7723ZM12.7723 15.3295C12.5843 15.3295 12.4322 15.1774 12.4322 14.9894C12.4322 14.8014 12.5843 14.6493 12.7723 14.6493H18.3491C18.5372 14.6493 18.6893 14.8014 18.6893 14.9894C18.6893 15.1774 18.5372 15.3295 18.3491 15.3295H12.7723ZM6.11866 15.3295C5.93066 15.3295 5.78026 15.1774 5.78026 14.9911C5.78026 14.8048 5.93237 14.6527 6.11866 14.6527H11.2888C11.4751 14.6527 11.6272 14.8048 11.6272 14.9911C11.6272 15.1774 11.4751 15.3295 11.2888 15.3295H6.11866ZM6.28274 13.3623C6.09473 13.3623 5.94433 13.2102 5.94433 13.0239C5.94433 12.8376 6.09644 12.6855 6.28274 12.6855H11.4528C11.6408 12.6855 11.7912 12.8376 11.7912 13.0239C11.7912 13.2102 11.6391 13.3623 11.4528 13.3623H6.28274Z" fill="black"/>
</svg>
