<svg width="23" height="23" viewBox="0 0 23 23" fill="none" xmlns="http://www.w3.org/2000/svg">
<path d="M19.9192 0.698242H2.51636C1.88692 0.698242 1.28327 0.948676 0.838187 1.39445C0.393109 1.84022 0.143066 2.44482 0.143066 3.07524L0.143066 20.5052C0.143066 21.1357 0.393109 21.7403 0.838187 22.186C1.28327 22.6318 1.88692 22.8822 2.51636 22.8822H19.9192C20.5486 22.8822 21.1523 22.6318 21.5973 22.186C22.0424 21.7403 22.2925 21.1357 22.2925 20.5052V3.07524C22.2925 2.44482 22.0424 1.84022 21.5973 1.39445C21.1523 0.948676 20.5486 0.698242 19.9192 0.698242ZM17.5019 8.56124C17.5119 8.70024 17.5119 8.84324 17.5119 8.98224C17.5203 10.198 17.2874 11.4033 16.8267 12.5281C16.366 13.653 15.6868 14.6749 14.8285 15.5346C13.9701 16.3943 12.9498 17.0746 11.8267 17.5359C10.7036 17.9973 9.5002 18.2306 8.28634 18.2222C6.52175 18.2259 4.79345 17.7204 3.30812 16.7662C3.56741 16.7945 3.82809 16.8078 4.0889 16.8062C5.54774 16.8096 6.96532 16.3215 8.11361 15.4202C7.4371 15.4078 6.78139 15.1839 6.2381 14.78C5.69481 14.376 5.29109 13.8122 5.08335 13.1672C5.56993 13.2514 6.0688 13.2313 6.54706 13.1082C5.81327 12.9586 5.1538 12.5592 4.68061 11.9779C4.20742 11.3967 3.94966 10.6693 3.95112 9.91924V9.87924C4.39957 10.1306 4.90129 10.2714 5.41483 10.2902C4.97059 9.99428 4.60631 9.5929 4.35442 9.12183C4.10253 8.65076 3.97084 8.12462 3.97109 7.59024C3.96708 7.01339 4.1185 6.44613 4.4094 5.94824C5.22314 6.9529 6.23883 7.77482 7.39048 8.36059C8.54213 8.94636 9.80396 9.28286 11.094 9.34824C10.9305 8.65071 11.0014 7.91863 11.2958 7.26562C11.5902 6.6126 12.0915 6.07515 12.7221 5.73667C13.3526 5.39818 14.077 5.27758 14.7829 5.39359C15.4889 5.50959 16.1368 5.85571 16.6263 6.37824C17.3521 6.23934 18.0481 5.9747 18.6831 5.59624C18.4414 6.34581 17.9352 6.98147 17.2593 7.38424C17.9042 7.311 18.5343 7.14075 19.1284 6.87924C18.6866 7.52951 18.136 8.09853 17.5009 8.56124H17.5019Z" fill="black"/>
</svg>
