<svg width="23" height="23" viewBox="0 0 23 23" fill="none" xmlns="http://www.w3.org/2000/svg">
<path d="M9.59739 9.12124L14.304 11.8002L9.59739 14.4792V9.12124ZM22.5102 3.07524V20.5052C22.5102 21.1357 22.2602 21.7403 21.8151 22.186C21.37 22.6318 20.7664 22.8822 20.1369 22.8822H2.73511C2.10567 22.8822 1.50202 22.6318 1.05694 22.186C0.611859 21.7403 0.361816 21.1357 0.361816 20.5052L0.361816 3.07524C0.361816 2.44482 0.611859 1.84022 1.05694 1.39445C1.50202 0.948676 2.10567 0.698242 2.73511 0.698242H20.1379C20.7672 0.698507 21.3706 0.949058 21.8154 1.3948C22.2603 1.84055 22.5102 2.445 22.5102 3.07524ZM20.4335 11.8052C20.4427 10.3411 20.3171 8.87924 20.058 7.43824C19.9562 7.05518 19.7555 6.70569 19.4761 6.42485C19.1968 6.14401 18.8486 5.94171 18.4665 5.83824C16.1344 5.55258 13.7859 5.4223 11.4365 5.44824C9.08734 5.41931 6.73884 5.54659 4.4065 5.82924C4.02441 5.93271 3.67623 6.13501 3.39688 6.41585C3.11753 6.69669 2.91685 7.04618 2.81498 7.42924C2.55579 8.87022 2.43012 10.3321 2.43957 11.7962C2.43028 13.2604 2.55595 14.7222 2.81498 16.1632C2.91608 16.5449 3.11664 16.8928 3.39611 17.1713C3.67558 17.4498 4.02393 17.6489 4.4055 17.7482C6.73812 18.0272 9.08649 18.1528 11.4355 18.1242C13.7847 18.1532 16.1332 18.0259 18.4655 17.7432C18.8467 17.6445 19.1948 17.4462 19.4744 17.1686C19.754 16.891 19.9551 16.5441 20.057 16.1632C20.3162 14.7239 20.4418 13.2637 20.4325 11.8012L20.4335 11.8052Z" fill="black"/>
</svg>
