<svg width="210" height="210" viewBox="0 0 210 210" fill="none" xmlns="http://www.w3.org/2000/svg">
<path d="M104.999 0C133.994 0 160.243 11.7527 179.245 30.7549C198.247 49.7554 210 76.0071 210 105C210 133.996 198.247 160.245 179.245 179.245C160.243 198.247 133.994 210 104.999 210C76.0048 210 49.755 198.247 30.7546 179.245C11.7526 160.245 0 133.995 0 104.998C0 76.0054 11.7526 49.7537 30.7546 30.7532C49.755 11.7527 76.0048 0 104.999 0ZM136.991 63.863C139.214 61.6379 142.822 61.6379 145.045 63.863C147.269 66.0864 147.269 69.6924 145.045 71.9175L111.958 105.007L145.045 138.096C147.269 140.32 147.269 143.926 145.045 146.151C142.822 148.374 139.214 148.374 136.991 146.151L103.902 113.061L70.8129 146.152C68.5895 148.376 64.9819 148.376 62.7585 146.152C60.5352 143.927 60.5352 140.321 62.7585 138.098L95.8493 105.009L62.7585 71.9175C60.5352 69.6924 60.5352 66.0864 62.7585 63.863C64.9819 61.6379 68.5895 61.6379 70.8129 63.863L103.904 96.9524L136.991 63.863ZM171.191 38.8076C154.252 21.8682 130.849 11.3921 104.999 11.3921C79.1493 11.3921 55.7483 21.8682 38.809 38.8076C21.8697 55.7471 11.392 79.1499 11.392 104.998C11.392 130.848 21.8697 154.251 38.8073 171.191C55.7466 188.128 79.1476 198.606 104.997 198.606C130.847 198.606 154.25 188.128 171.189 171.191C188.129 154.251 198.606 130.848 198.606 104.998C198.608 79.1499 188.13 55.7471 171.191 38.8076Z" fill="white"/>
</svg>
