<svg width="210" height="210" viewBox="0 0 210 210" fill="none" xmlns="http://www.w3.org/2000/svg">
<path d="M104.999 0C133.994 0 160.243 11.7526 179.245 30.7529C198.247 49.7533 210 76.0048 210 104.997C210 133.994 198.247 160.243 179.245 179.244C160.243 198.244 133.994 209.998 104.999 209.998C76.0048 209.998 49.755 198.246 30.7546 179.245C11.7543 160.245 0 133.994 0 104.997C0 76.0048 11.7526 49.7533 30.7546 30.7529C49.7567 11.7526 76.0048 0 104.999 0ZM59.0552 114.807C56.8113 112.777 56.637 109.311 58.669 107.067C60.6992 104.823 64.165 104.649 66.4089 106.679L89.3792 127.508L143.285 71.0505C145.375 68.8527 148.853 68.7673 151.049 70.8556C153.245 72.9457 153.332 76.4217 151.242 78.6178L93.6396 138.948L93.6328 138.941C91.5906 141.089 88.1948 141.228 85.9851 139.228L59.0552 114.807ZM171.461 38.5373C154.452 21.5296 130.953 11.0075 104.999 11.0075C79.0433 11.0075 55.545 21.5279 38.5373 38.5356C21.5279 55.545 11.0092 79.0416 11.0092 104.997C11.0092 130.953 21.5296 154.452 38.5373 171.461C55.545 188.469 79.0433 198.989 104.999 198.989C130.953 198.989 154.452 188.469 171.461 171.461C188.47 154.452 198.987 130.955 198.987 104.997C198.989 79.0433 188.47 55.545 171.461 38.5373Z" fill="white"/>
</svg>
